<svg xmlns="http://www.w3.org/2000/svg" viewBox="0 0 1024 1024">
  <defs>
    <style>
      .black {
        fill: #1a2027;

      }

      .blue {
        fill: #006edb;
      }
    </style>
  </defs>
  <path d="M744 1004h12a38 38 0 0 0-12 0Z" />
  <path class="black"
    d="M993 996H232C107 996 5 899 5 781V65a26 26 0 1 1 52 0v716c0 90 79 163 175 163h761a26 26 0 1 1 0 52Z" />
  <path class="blue"
    d="m854 819-7-7-657-681c-64-61-60 32-60 32v-1 597c1 32 16 116 128 116 21 0 32 1 36 2h530c73 0 45-41 30-58ZM906 29H781a74 74 0 0 0-46 27L603 200c-29 32-60 0-60 0L408 54a74 74 0 0 0-44-25 38 38 0 0 0-12 0H249c-31 0-16 22-6 34l274 293 5 5c35 38 70 19 85 7L911 64l-5 5s42-40 0-40Z" />
  <path class="black"
    d="M1013 821V696a74 74 0 0 0-28-46L841 518c-32-29 0-60 0-60l146-134c19-18 24-34 26-45a38 38 0 0 0 0-12V165c0-32-23-17-34-7L685 432l-5 5c-38 35-19 70-7 85l304 304-5-5s41 42 41 0Z" />
</svg>