<svg id="2975dafc-d97d-41f2-a4cb-76594d0e646a" data-name="Layer 1" xmlns="http://www.w3.org/2000/svg" viewBox="0 0 1024 1024"><defs><style>.a94b7b65-c16a-406a-a5d8-c84e1713073a{fill:none;}.d69f4400-89af-45d0-9440-7735ca7862f9{font-size:98.54px;font-family:Rubik-Medium, Rubik;}.\33 8514515-9f50-4b16-ba24-561836d9c4d8,.d69f4400-89af-45d0-9440-7735ca7862f9{fill:#1a2027;}.\39 b9e4ba9-1dc2-4a20-a67e-5a39a7e8eb19{letter-spacing:-0.07em;}.\36 a405d2b-dae4-4fcb-a65c-c45c0621ac0a{fill:#006edb;}.\33 31f77e3-4d06-4f82-a91d-1eae86fe8433{letter-spacing:-0.01em;}</style></defs><title>NN ICON</title><path class="a94b7b65-c16a-406a-a5d8-c84e1713073a" d="M744.44,1004h11.79A38,38,0,0,0,744.44,1004Z"/><text class="d69f4400-89af-45d0-9440-7735ca7862f9" transform="translate(369.24 494.92)">M<tspan class="9b9e4ba9-1dc2-4a20-a67e-5a39a7e8eb19" x="80.02" y="0">A</tspan><tspan x="142.39" y="0">TTHEW</tspan><tspan class="6a405d2b-dae4-4fcb-a65c-c45c0621ac0a"><tspan x="0" y="93.28">K</tspan><tspan class="331f77e3-4d06-4f82-a91d-1eae86fe8433" x="61.88" y="93.28">W</tspan><tspan x="140.22" y="93.28">ONG</tspan></tspan></text><path class="38514515-9f50-4b16-ba24-561836d9c4d8" d="M347.61,588.77h-126c-20.76,0-37.64-16-37.64-35.66V434.56a4.27,4.27,0,0,1,8.54,0V553.11c0,15,13.05,27.12,29.1,27.12h126a4.27,4.27,0,0,1,0,8.54Z"/><path class="a94b7b65-c16a-406a-a5d8-c84e1713073a" d="M323.35,558.31l1.17,1.22C323.86,558.78,323.35,558.31,323.35,558.31Z"/><path class="a94b7b65-c16a-406a-a5d8-c84e1713073a" d="M323.35,558.31l1.17,1.22C323.86,558.78,323.35,558.31,323.35,558.31Z"/><path class="6a405d2b-dae4-4fcb-a65c-c45c0621ac0a" d="M324.52,559.52l-1.17-1.22h0L214.49,445.49c-10.48-10.13-9.88,5.24-9.88,5.24l-.06-.15V549.5c.28,5.27,2.75,19.24,21.22,19.24a34.28,34.28,0,0,1,5.93.27h87.84C331.71,569,327,562.32,324.52,559.52Z"/><path class="a94b7b65-c16a-406a-a5d8-c84e1713073a" d="M312.5,428.45h2A6.29,6.29,0,0,0,312.5,428.45Z"/><path class="6a405d2b-dae4-4fcb-a65c-c45c0621ac0a" d="M333.16,428.45H312.5c-1.75.23-4.48,1.15-7.36,4.28-.12.13-.23.23-.34.33L283,456.95h0c-4.79,5.24-9.95,0-9.95,0l-22.26-24.22h0c-2.87-3.13-5.6-4-7.36-4.28a6.29,6.29,0,0,0-2,0h-17c-5.22,0-2.66,3.74-1,5.65l45.38,48.67c.24.22.49.48.77.77,5.89,6.32,11.57,3.23,14.09,1.24l50.44-50.44-.9.86S340.17,428.45,333.16,428.45Z"/><path class="38514515-9f50-4b16-ba24-561836d9c4d8" d="M350.92,559.77V539.11c-.23-1.75-1.15-4.48-4.28-7.36-.13-.12-.23-.23-.33-.34l-23.88-21.85h0c-5.24-4.79,0-9.95,0-9.95l24.22-22.26h0c3.13-2.87,4-5.6,4.28-7.36a6.29,6.29,0,0,0,0-2V451c0-5.22-3.74-2.66-5.65-1L296.6,495.36c-.22.24-.48.49-.77.77-6.32,5.89-3.23,11.57-1.24,14.09L345,560.66l-.86-.9S350.92,566.77,350.92,559.77Z"/></svg>