<svg xmlns="http://www.w3.org/2000/svg" viewBox="0 0 1024 1024">
  <defs>
    <style>
      .text {
        font-size: 98.54px;
        font-family: Rubik;
        font-weight: 700;
      }

      .black {
        fill: #1a2027;
      }

      .blue {
        fill: #006edb;
      }
    </style>
  </defs>
  <path d="M744.44,1004h11.79A38,38,0,0,0,744.44,1004Z" />
  <text class="text black" transform="translate(369.24 494.92)">
    MATTHEW
    <tspan class="blue" x="0" y="93.28">
      KWONG
    </tspan>
  </text>
  <path class="black"
    d="M347.6 588.8h-126c-20.7 0-37.6-16-37.6-35.7V434.6a4.3 4.3 0 0 1 8.5 0V553c0 15 13 27.1 29.1 27.1h126a4.3 4.3 0 0 1 0 8.6Z" />
  <path class="a94b7b65-c16a-406a-a5d8-c84e1713073a" d="m323.4 558.3 1.1 1.2a18 18 0 0 0-1.1-1.2Z" />
  <path class="a94b7b65-c16a-406a-a5d8-c84e1713073a" d="m323.4 558.3 1.1 1.2a18 18 0 0 0-1.1-1.2Z" />
  <path class="blue"
    d="m324.5 559.5-1.2-1.2-108.8-112.8c-10.5-10.1-9.9 5.2-9.9 5.2v-.1 98.9c.2 5.3 2.7 19.2 21.2 19.2a34.3 34.3 0 0 1 5.9.3h87.8c12.2 0 7.5-6.7 5-9.5Z" />
  <path class="a94b7b65-c16a-406a-a5d8-c84e1713073a" d="M312.5 428.4h2a6.3 6.3 0 0 0-2 0Z" />
  <path class="blue"
    d="M333.2 428.4h-20.7c-1.8.3-4.5 1.2-7.4 4.3 0 .2-.2.3-.3.4L283 456.9c-4.8 5.3-10 0-10 0l-22.2-24.2c-2.9-3.1-5.6-4-7.4-4.2a6.3 6.3 0 0 0-2 0h-17c-5.2 0-2.6 3.7-1 5.6l45.4 48.7.8.7c5.9 6.4 11.5 3.3 14 1.3l50.5-50.5-.9.9s7-6.8 0-6.8Z" />
  <path class="black"
    d="M351 559.8V539c-.3-1.7-1.2-4.5-4.4-7.4l-.3-.3-23.9-21.8c-5.2-4.8 0-10 0-10l24.3-22.3c3-2.8 4-5.6 4.2-7.3a6.3 6.3 0 0 0 0-2v-17c0-5.2-3.7-2.7-5.6-1l-48.7 45.4-.8.7c-6.3 6-3.2 11.6-1.2 14.1l50.4 50.5-.9-1s6.8 7 6.8 0Z" />
</svg>